<svg xmlns="http://www.w3.org/2000/svg" xmlns:xlink="http://www.w3.org/1999/xlink" viewBox="0 0 24 24"><defs><linearGradient id="a"><stop offset="0" stop-color="#f7d34b"/><stop offset="1" stop-color="#de4293"/></linearGradient><linearGradient xlink:href="#a" id="b" x1="11.207" x2="11.518" y1="5.051" y2="19.42" gradientUnits="userSpaceOnUse"/></defs><path fill="url(#b)" d="M3 7c-.6 0-1 .4-1 1s.4 1 1 1h2V7H3m-1 4c-.6 0-1 .4-1 1s.4 1 1 1h3v-2H2m-1 4c-.6 0-1 .4-1 1s.4 1 1 1h4v-2H1M20 5H9c-1.1 0-2 .9-2 2v14l4-4h9c1.1 0 2-.9 2-2V7c0-1.1-.9-2-2-2Z"/></svg>
